<svg xmlns="http://www.w3.org/2000/svg" viewBox="0 0 90 90"><defs><style>.cls-1{fill:none;}.cls-2{fill:#fff;}.cls-3{fill:#324550;}.cls-4{fill:#57c4c9;}</style></defs><title>Female02_active</title><g id="Layer_2" data-name="Layer 2"><g id="Layer_5" data-name="Layer 5"><rect class="cls-1" width="90" height="90"/><rect class="cls-1" width="90" height="90" transform="translate(90 90) rotate(-180)"/><rect class="cls-1" width="90" height="90" transform="translate(90 90) rotate(-180)"/><path class="cls-2" d="M64.81,33.16a19.81,19.81,0,0,1-17.05,19.6c0,.07,0,.14,0,.21V64.89h6a2.78,2.78,0,1,1,0,5.56h-6v3.42a2.78,2.78,0,0,1-5.56,0V70.45h-6a2.78,2.78,0,0,1,0-5.56h6V53c0-.07,0-.14,0-.21a19.8,19.8,0,1,1,22.57-19.6Z"/><path class="cls-2" d="M64.81,33.16a19.81,19.81,0,0,1-17.05,19.6c0,.07,0,.14,0,.21V64.89h6a2.78,2.78,0,1,1,0,5.56h-6v3.42a2.78,2.78,0,0,1-5.56,0V70.45h-6a2.78,2.78,0,0,1,0-5.56h6V53c0-.07,0-.14,0-.21a19.8,19.8,0,1,1,22.57-19.6Z"/><path class="cls-3" d="M34.25,22.4a15.2,15.2,0,1,1-4.47,10.76A15.18,15.18,0,0,1,34.25,22.4ZM54.69,42.85a13.71,13.71,0,1,0-9.69,4A13.68,13.68,0,0,0,54.69,42.85Z"/><circle class="cls-4" cx="45" cy="33.16" r="14.47" transform="translate(-7.87 15.01) rotate(-17.44)"/><path class="cls-3" d="M34.25,22.4a15.2,15.2,0,1,1-4.47,10.76A15.18,15.18,0,0,1,34.25,22.4ZM54.69,42.85a13.71,13.71,0,1,0-9.69,4A13.68,13.68,0,0,0,54.69,42.85Z"/><path class="cls-3" d="M30.47,18.63A20.55,20.55,0,0,1,65.56,33.16h0a20.62,20.62,0,0,1-17,20.23V64.14h5.26a3.53,3.53,0,0,1,3.53,3.53,3.61,3.61,0,0,1-3.53,3.53H48.53v2.67a3.53,3.53,0,1,1-7.06,0V71.2H36.21a3.49,3.49,0,0,1-2.5-1,3.53,3.53,0,0,1-1-2.5,3.61,3.61,0,0,1,3.53-3.52h5.26V53.39a20.53,20.53,0,0,1-11-34.76ZM64.06,33.16A19.06,19.06,0,1,0,42.35,52a.76.76,0,0,1,.64.8.51.51,0,0,1,0,.13v12a.75.75,0,0,1-.75.75h-6a2.07,2.07,0,0,0-2,2,2,2,0,0,0,2,2h6a.76.76,0,0,1,.75.75v3.42a2,2,0,0,0,4.06,0V70.45a.75.75,0,0,1,.75-.75h6a2.07,2.07,0,0,0,2-2,2,2,0,0,0-2-2h-6a.74.74,0,0,1-.53-.21.79.79,0,0,1-.22-.54V53l0-.15a.76.76,0,0,1,.64-.81A19.11,19.11,0,0,0,64.06,33.16Z"/></g></g></svg>