<svg xmlns="http://www.w3.org/2000/svg" viewBox="0 0 90 90"><defs><style>.cls-1{fill:none;}.cls-2{fill:#fff;}.cls-3{fill:#324550;}.cls-4{fill:#57c4c9;}</style></defs><title>male_active</title><g id="Layer_2" data-name="Layer 2"><g id="Layer_6" data-name="Layer 6"><rect class="cls-1" width="90" height="90"/></g><g id="Layer_5" data-name="Layer 5"><rect class="cls-1" width="90" height="90"/><path class="cls-2" d="M67.09,20.13H52.87a2.78,2.78,0,1,0,0,5.56h7.51L52,34.08c-.05.05-.09.11-.14.17a19.81,19.81,0,1,0,3.9,3.9l.17-.14,8.39-8.39v7.51a2.78,2.78,0,1,0,5.56,0V22.91A2.79,2.79,0,0,0,67.09,20.13Z"/><path class="cls-3" d="M40,70.62a20.57,20.57,0,0,1-14.54-35.1,20.62,20.62,0,0,1,26.35-2.27l6.8-6.81H52.87a3.53,3.53,0,0,1,0-7.06H67.09a3.54,3.54,0,0,1,3.53,3.53V37.13a3.53,3.53,0,1,1-7.06,0v-5.7l-6.81,6.81a20.62,20.62,0,0,1-2.27,26.35A20.38,20.38,0,0,1,40,70.62ZM40,31a19,19,0,1,0,15.2,7.57.76.76,0,0,1,.11-1l.11-.08,8.41-8.41a.74.74,0,0,1,.81-.16.76.76,0,0,1,.47.69v7.51a2,2,0,1,0,4.06,0V22.91a2,2,0,0,0-2-2H52.87a2,2,0,1,0,0,4.06h7.51a.75.75,0,0,1,.53,1.28l-8.39,8.39-.1.12a.75.75,0,0,1-1,.12A18.91,18.91,0,0,0,40,31Z"/><circle class="cls-4" cx="39.95" cy="50.05" r="14.5" transform="translate(-1.06 0.87) rotate(-1.23)"/><path class="cls-3" d="M40,65.31a15.26,15.26,0,1,1,10.78-4.47h0A15.15,15.15,0,0,1,40,65.31Zm0-29a13.75,13.75,0,1,0,9.72,23.47h0A13.75,13.75,0,0,0,40,36.31Z"/><path class="cls-3" d="M40,65.31a15.26,15.26,0,1,1,10.78-4.47h0A15.15,15.15,0,0,1,40,65.31Zm0-29a13.75,13.75,0,1,0,9.72,23.47h0A13.75,13.75,0,0,0,40,36.31Z"/></g></g></svg>